<?xml version="1.0" standalone="no"?>
<!DOCTYPE svg PUBLIC "-//W3C//DTD SVG 20010904//EN"
 "http://www.w3.org/TR/2001/REC-SVG-20010904/DTD/svg10.dtd">
<svg version="1.0" xmlns="http://www.w3.org/2000/svg"
 width="242.000000pt" height="320.000000pt" viewBox="0 0 242.000000 320.000000"
 preserveAspectRatio="xMidYMid meet">

<g transform="translate(0.000000,320.000000) scale(0.100000,-0.100000)"
fill="#000000" stroke="none">
<path d="M1599 3034 c-18 -31 -40 -62 -46 -69 -15 -16 -17 -39 -4 -30 28 16
16 -68 -21 -147 l-21 -47 -27 30 c-16 16 -38 29 -52 29 -27 0 -68 -37 -68 -62
0 -21 25 -40 47 -36 27 5 23 33 -4 32 -26 -1 -30 18 -9 35 18 15 66 -5 66 -28
0 -39 -211 -251 -249 -251 -5 0 -24 27 -41 59 -39 72 -109 147 -155 167 -43
18 -116 18 -158 0 -43 -18 -84 -67 -98 -119 -20 -71 -15 -221 11 -316 l23 -84
-24 -20 c-13 -10 -36 -30 -51 -43 -31 -27 -53 -32 -45 -9 4 8 2 17 -2 20 -5 3
-11 -2 -15 -10 -3 -8 -12 -12 -21 -9 -8 3 -15 1 -15 -5 0 -6 5 -11 10 -11 6 0
10 -7 10 -15 0 -9 -9 -15 -22 -15 -21 -1 -21 -2 -5 -11 16 -9 10 -19 -55 -92
-40 -45 -79 -81 -88 -80 -36 4 -105 25 -119 36 -16 12 -9 0 46 -84 l24 -36
-48 -79 c-26 -44 -59 -104 -73 -133 -22 -48 -25 -51 -31 -30 -4 13 -7 39 -8
57 -1 29 -21 48 -21 19 0 -7 -13 -28 -28 -47 -38 -47 -52 -74 -51 -102 0 -23
0 -23 10 2 12 29 79 95 79 76 0 -13 -59 -99 -72 -104 -11 -5 -9 -84 2 -102 7
-11 8 -6 4 16 -5 26 0 38 26 68 18 20 34 35 36 33 3 -2 -2 -22 -10 -44 -23
-65 -47 -230 -45 -302 2 -66 2 -66 -23 -63 -14 2 -43 -4 -63 -12 -21 -9 -48
-16 -62 -16 -36 0 -19 -16 37 -35 48 -16 51 -16 76 4 35 27 44 26 44 -4 0 -22
-3 -25 -27 -20 -26 5 -26 4 4 -10 22 -10 35 -24 39 -42 14 -67 50 -164 86
-235 21 -43 36 -78 34 -78 -2 0 -34 14 -71 30 -37 16 -69 30 -71 30 -3 0 4
-12 15 -28 11 -15 30 -53 41 -84 22 -60 67 -108 100 -108 11 0 36 -11 56 -25
20 -14 46 -25 58 -25 14 0 8 6 -20 19 -42 19 -64 56 -64 105 0 18 4 16 27 -14
49 -63 127 -141 189 -191 44 -35 60 -54 60 -71 -1 -20 3 -23 31 -21 36 3 103
-31 103 -52 0 -20 49 -75 67 -75 11 0 13 -7 8 -32 -9 -42 -38 -73 -61 -64 -16
6 -16 7 1 19 22 17 16 52 -9 52 -10 0 -24 -8 -30 -17 -14 -23 2 -50 37 -62 34
-12 62 12 71 59 5 24 15 38 37 49 27 13 35 13 86 -5 31 -10 63 -19 71 -19 7 0
27 -9 42 -20 80 -57 255 -64 371 -15 129 55 305 118 324 116 11 0 41 -3 66 -7
42 -5 50 -3 79 23 25 22 33 39 35 68 2 31 10 45 39 68 27 22 36 25 36 13 0
-23 11 -20 58 14 43 31 59 64 48 98 -4 12 0 24 9 32 53 44 143 250 171 389 9
47 24 87 40 108 14 18 21 33 15 33 -5 0 -13 -4 -16 -10 -15 -25 -20 -3 -20 88
0 61 5 105 13 120 8 13 9 22 2 22 -5 0 -10 -4 -10 -10 0 -5 -4 -10 -9 -10 -5
0 -12 21 -16 47 -4 27 -16 75 -28 108 -11 33 -21 85 -22 115 0 52 -1 55 -28
58 -47 6 -52 34 -18 107 43 91 48 115 23 115 -10 0 -40 3 -65 6 -43 6 -46 5
-62 -25 l-16 -32 -69 63 c-38 35 -102 81 -142 102 -84 45 -88 50 -88 93 0 17
-4 35 -10 38 -5 3 -10 0 -10 -8 0 -8 -18 -37 -40 -63 -22 -27 -46 -64 -53 -82
-10 -30 -15 -33 -42 -29 -89 16 -95 16 -37 -2 34 -10 65 -21 68 -23 2 -3 7
-28 11 -57 6 -54 3 -58 -40 -42 -20 8 -24 15 -19 36 4 24 2 26 -19 23 -18 -2
-24 -9 -24 -30 -1 -23 4 -27 35 -33 43 -8 80 -31 80 -50 0 -7 5 -17 12 -21 8
-5 9 0 6 14 -4 12 -4 22 -1 22 19 0 104 -57 122 -81 12 -16 28 -29 35 -29 18
0 77 -66 111 -124 27 -46 27 -46 10 -91 -15 -38 -16 -49 -5 -76 7 -17 24 -38
37 -46 19 -12 21 -18 12 -30 -15 -18 -54 -13 -55 7 -1 24 -50 125 -83 174 -17
25 -31 55 -31 68 -1 30 -59 110 -61 82 -1 -10 -1 -22 0 -26 2 -13 -9 -9 -39
12 -40 29 -126 65 -187 79 l-52 13 20 31 c24 41 24 84 0 121 -39 59 -110 74
-157 33 -46 -40 -29 -111 25 -105 20 2 27 9 29 31 3 26 -8 33 -40 28 -12 -2
-9 14 4 27 19 19 63 14 84 -9 10 -12 18 -24 18 -28 -1 -3 1 -12 4 -19 11 -29
-21 -97 -70 -148 -60 -64 -53 -69 20 -14 29 22 59 40 67 40 33 0 163 -52 213
-85 51 -34 52 -36 52 -84 0 -67 -26 -74 -84 -25 -47 40 -144 89 -196 98 -23 4
-14 -2 28 -18 106 -40 192 -104 192 -142 0 -16 9 -25 30 -33 70 -24 125 -227
102 -375 -20 -130 -94 -264 -186 -340 -35 -28 -45 -32 -50 -21 -3 10 17 40 55
82 124 136 161 271 124 446 -41 195 -165 318 -348 349 -63 10 -169 2 -220 -18
-19 -7 -46 34 -125 185 l-54 104 61 151 c70 174 91 257 97 376 l4 85 57 42
c32 23 63 42 68 43 6 0 16 9 23 20 7 12 17 18 22 15 6 -4 13 2 17 12 4 10 36
50 72 89 75 80 149 208 158 272 5 34 3 42 -10 42 -8 0 -18 -6 -20 -12 -3 -7
-4 10 -1 37 5 56 -1 51 -12 -10 l-7 -40 -9 33 c-6 24 -4 41 8 69 17 35 17 36
-3 52 l-20 17 23 34 c25 38 29 50 16 50 -4 0 -24 -25 -43 -56z m11 -64 c0 -5
-7 -10 -15 -10 -8 0 -15 5 -15 10 0 6 7 10 15 10 8 0 15 -4 15 -10z m-10 -70
c0 -29 -4 -40 -15 -40 -17 0 -20 32 -5 61 16 28 20 24 20 -21z m-20 -75 c0 -8
-4 -15 -10 -15 -5 0 -10 7 -10 15 0 8 5 15 10 15 6 0 10 -7 10 -15z m40 -9 c0
-3 -4 -8 -10 -11 -5 -3 -10 -1 -10 4 0 6 5 11 10 11 6 0 10 -2 10 -4z m37 -28
c-3 -8 -6 -5 -6 6 -1 11 2 17 5 13 3 -3 4 -12 1 -19z m-87 -4 c0 -12 -55 -104
-62 -104 -13 0 -9 17 14 65 12 25 28 45 35 45 7 0 13 -3 13 -6z m6 -61 c-34
-61 -108 -153 -118 -147 -5 3 9 26 30 52 21 26 53 70 72 99 42 64 51 62 16 -4z
m58 15 c-20 -64 -151 -229 -164 -207 -5 7 12 36 42 73 27 33 59 80 70 103 13
26 26 39 35 36 7 -3 13 0 13 6 0 6 3 11 6 11 3 0 2 -10 -2 -22z m-154 -31 c0
-34 -248 -262 -265 -245 -3 3 19 24 49 47 61 48 196 186 196 201 0 6 5 10 10
10 6 0 10 -6 10 -13z m-14 -86 c-32 -32 -34 -11 -4 32 19 27 23 29 26 13 2
-10 -7 -30 -22 -45z m-456 0 c38 -30 85 -115 95 -171 6 -33 4 -37 -35 -60 -23
-14 -48 -24 -56 -22 -7 2 -14 -3 -14 -10 -1 -17 -138 -109 -145 -98 -13 21
-35 166 -35 228 0 77 20 120 72 152 40 25 69 20 118 -19z m413 -28 c-9 -26
-41 -59 -108 -112 -77 -61 -85 -65 -85 -48 0 8 33 39 73 70 39 30 83 67 96 81
29 31 32 32 24 9z m-29 -75 c-15 -27 -38 -48 -51 -48 -7 0 1 13 19 30 37 33
43 36 32 18z m39 -23 c4 -9 -5 -22 -23 -35 -35 -25 -39 -14 -9 24 24 30 25 31
32 11z m-155 -82 c-15 -15 -31 -23 -35 -19 -4 4 3 16 17 26 37 29 49 24 18 -7z
m26 -39 c-45 -38 -54 -41 -54 -16 0 20 59 61 79 54 9 -3 1 -15 -25 -38z m-184
21 c0 -7 -91 -67 -96 -63 -2 3 15 19 39 36 40 29 57 38 57 27z m0 -44 c0 -5
-12 -17 -27 -26 -16 -10 -38 -25 -50 -33 -41 -26 -25 6 19 38 42 31 58 37 58
21z m0 -41 c0 -5 -20 -23 -45 -40 -25 -17 -45 -26 -45 -21 0 5 19 23 43 40 48
35 47 34 47 21z m-164 -28 c-9 -15 -86 -65 -92 -60 -2 3 17 21 43 40 46 34 62
40 49 20z m40 -18 c-11 -7 -22 -11 -25 -8 -3 3 3 12 13 20 11 7 22 11 25 8 3
-3 -3 -12 -13 -20z m106 -27 c-6 -7 -24 -20 -41 -30 -47 -27 -41 4 7 35 35 24
55 21 34 -5z m-142 6 c-1 -14 -80 -63 -80 -50 0 6 15 22 33 34 34 23 47 28 47
16z m46 -19 c-11 -7 -22 -11 -25 -8 -3 3 3 12 13 20 11 7 22 11 25 8 3 -3 -3
-12 -13 -20z m-44 -26 c-16 -20 -72 -50 -72 -40 0 11 59 52 74 52 5 0 4 -6 -2
-12z m128 -44 c-7 -20 -33 -80 -57 -133 l-45 -96 -33 65 c-19 36 -34 72 -34
80 -1 8 16 26 37 40 20 14 59 42 87 62 54 41 63 38 45 -18z m-325 -19 c-22
-18 -42 -31 -44 -29 -2 2 13 19 35 38 21 19 41 32 44 29 2 -2 -13 -19 -35 -38z
m173 -14 c-23 -20 -47 -13 -33 9 10 16 49 30 53 19 2 -5 -7 -18 -20 -28z
m-171 -26 c-31 -25 -59 -45 -62 -45 -13 0 90 89 103 90 8 0 -11 -20 -41 -45z
m23 -23 c-74 -61 -187 -172 -216 -213 -15 -22 -31 -39 -36 -39 -12 0 19 43 79
110 58 65 205 191 213 184 3 -4 -15 -22 -40 -42z m59 -15 c-2 -2 -28 -22 -56
-46 -29 -23 -57 -40 -63 -36 -5 3 -10 0 -10 -8 0 -7 -11 -24 -25 -37 -14 -13
-47 -55 -72 -92 -47 -68 -63 -82 -63 -52 0 50 259 309 284 284 5 -5 8 -11 5
-13z m-189 -10 c0 -1 -30 -32 -67 -67 l-68 -65 65 68 c60 62 70 72 70 64z
m248 -100 c50 -89 56 -64 -61 -247 -124 -192 -183 -332 -212 -496 -28 -161
-13 -273 56 -414 53 -107 151 -209 253 -262 64 -33 67 -37 48 -47 -18 -10 -34
-5 -99 28 -182 91 -324 239 -396 412 -14 34 -14 36 2 32 23 -6 44 21 36 46 -6
20 -39 37 -62 33 -15 -3 -21 17 -32 115 -19 172 19 347 115 533 42 80 92 154
81 119 -7 -22 11 -39 43 -39 41 0 50 17 50 96 l0 72 58 51 c31 28 62 49 67 48
6 -2 29 -38 53 -80z m-297 6 c-33 -38 -69 -79 -80 -93 -12 -15 -20 -19 -21
-11 0 11 146 171 157 171 3 0 -23 -30 -56 -67z m1209 -41 c0 -18 -63 -102 -76
-102 -28 0 -13 39 29 74 46 39 47 40 47 28z m-1100 -43 c0 -39 -2 -41 -24 -35
-14 3 -28 2 -31 -4 -3 -5 -11 -10 -16 -10 -6 0 4 20 22 45 18 25 36 45 41 45
4 0 8 -18 8 -41z m1182 10 c96 -57 218 -162 218 -189 0 -4 -17 -7 -37 -6 -34
1 -38 -2 -41 -26 -6 -49 68 -46 83 3 10 31 29 8 34 -43 1 -4 9 -9 19 -12 10
-3 26 -20 36 -36 17 -30 17 -32 -6 -80 -13 -29 -30 -49 -39 -50 -10 0 -35 28
-59 64 -48 75 -150 182 -208 221 -36 24 -42 33 -47 74 -3 25 -8 61 -11 79 -3
17 -3 32 0 32 3 0 29 -14 58 -31z m-1444 -3 c2 -3 1 -9 -2 -14 -8 -13 -42 -4
-58 16 -11 14 -9 15 21 9 19 -4 36 -9 39 -11z m30 -81 c-12 -27 -28 -34 -28
-12 0 14 20 37 32 37 4 0 2 -11 -4 -25z m1351 -17 c1 -11 -11 -10 -28 1 -13 8
-13 12 -1 26 13 16 15 16 21 -2 4 -10 8 -21 8 -25z m-1324 -8 c-9 -18 -19 -30
-21 -27 -3 3 2 19 11 37 9 18 19 30 21 27 3 -3 -2 -19 -11 -37z m1225 20 c0
-5 -2 -10 -4 -10 -3 0 -8 5 -11 10 -3 6 -1 10 4 10 6 0 11 -4 11 -10z m104
-71 c3 -17 6 -44 6 -59 l0 -28 -55 30 c-62 33 -70 56 -34 94 20 21 24 22 49 9
18 -9 30 -25 34 -46z m-1422 -50 c-40 -86 -75 -186 -88 -249 -6 -33 -19 -49
-37 -50 -19 0 43 190 100 308 57 117 79 110 25 -9z m114 44 c-30 -27 -33 -16
-10 29 15 28 17 30 26 14 8 -14 5 -24 -16 -43z m-160 -35 c-41 -87 -59 -129
-77 -183 -13 -37 -14 -38 -17 -13 -3 27 44 141 94 225 38 65 38 51 0 -29z
m1847 66 c39 -7 44 -17 26 -58 -10 -21 -17 -24 -47 -22 -43 4 -64 30 -51 64 9
24 15 25 72 16z m-313 -44 c31 -26 33 -29 13 -30 -12 0 -28 -3 -36 -6 -11 -4
-16 4 -19 30 -2 20 -2 36 2 36 3 0 21 -14 40 -30z m-781 -167 c34 -67 61 -124
61 -127 0 -3 -25 -21 -55 -41 -71 -47 -111 -94 -149 -175 -29 -61 -31 -71 -31
-186 0 -119 0 -121 38 -196 43 -89 104 -148 174 -172 97 -33 114 -6 30 47 -70
45 -122 108 -143 171 -21 61 -23 171 -5 244 17 67 79 162 134 202 l41 30 29
-55 c15 -31 64 -140 108 -243 44 -103 86 -201 94 -218 8 -16 30 -67 49 -112
l35 -82 -23 -15 c-12 -8 -56 -27 -97 -41 -243 -87 -475 26 -561 273 -19 58
-23 87 -23 193 1 110 4 135 28 205 39 111 193 433 203 423 1 -2 30 -58 63
-125z m-723 -19 c-13 -49 -27 -102 -30 -117 -4 -15 -11 -25 -16 -22 -12 7 -7
29 33 155 37 117 47 105 13 -16z m57 15 c-51 -146 -66 -329 -39 -456 11 -50
11 -65 1 -73 -15 -12 -18 3 -36 149 -8 72 -8 104 1 137 7 24 10 50 7 57 -9 23
17 133 58 245 2 6 11 12 19 12 11 0 9 -14 -11 -71z m1642 -51 l26 -47 -37 -16
c-20 -8 -38 -14 -38 -13 -15 29 -65 100 -84 120 l-25 27 25 10 c14 5 28 18 32
28 7 16 12 13 41 -22 19 -22 46 -61 60 -87z m175 30 c0 -19 -2 -20 -10 -8 -13
19 -13 30 0 30 6 0 10 -10 10 -22z m-20 -30 c0 -10 -41 -31 -47 -24 -3 3 2 17
12 32 13 21 19 24 26 13 5 -8 9 -17 9 -21z m-380 -18 c6 -11 9 -20 7 -20 -2 0
-12 9 -22 20 -10 11 -13 20 -7 20 6 0 16 -9 22 -20z m-1620 -145 c-7 -61 -11
-146 -8 -188 5 -77 1 -89 -22 -62 -15 18 -15 192 0 261 36 161 49 156 30 -11z
m1631 69 c4 -16 7 -23 8 -16 2 23 21 2 51 -58 17 -33 30 -72 30 -88 0 -15 5
-33 11 -39 6 -6 11 -32 12 -59 2 -46 1 -49 -25 -52 l-28 -3 0 70 c0 38 -4 73
-10 76 -12 7 -13 0 -11 -80 l1 -60 -19 60 c-25 81 -38 113 -61 145 -25 35 -25
40 0 40 23 0 27 18 5 26 -10 4 -15 20 -15 51 0 45 0 45 23 31 12 -9 25 -28 28
-44z m407 -11 c11 -38 25 -94 32 -125 10 -53 10 -60 -10 -87 -20 -30 -21 -30
-51 -13 -16 9 -32 28 -35 42 -3 14 -16 62 -30 108 -14 45 -22 87 -19 93 6 9
71 45 87 48 3 1 15 -29 26 -66z m-140 -1 c2 -7 -6 -12 -21 -12 -14 0 -33 -3
-43 -7 -12 -4 -15 -3 -10 6 9 14 46 31 60 27 6 -1 12 -8 14 -14z m-629 -47
c31 -15 69 -38 85 -53 45 -42 91 -121 109 -188 20 -71 21 -113 6 -186 -16 -72
-89 -222 -103 -207 -19 20 -325 653 -320 661 12 19 160 1 223 -27z m531 -4
c-13 -25 -13 -61 0 -61 6 0 10 10 11 23 1 17 3 15 12 -11 12 -40 4 -51 -23
-27 -27 24 -26 95 1 95 6 0 5 -8 -1 -19z m80 12 c-1 -5 -9 -23 -19 -42 l-18
-34 -6 33 c-4 17 -4 36 -1 41 6 11 44 12 44 2z m32 -68 c-11 -25 -38 -43 -48
-33 -2 3 5 27 17 54 20 46 22 48 32 26 7 -16 7 -29 -1 -47z m-1859 -98 c4 -90
12 -156 27 -207 29 -99 98 -241 154 -315 40 -53 58 -95 40 -95 -10 0 -42 42
-108 140 -69 104 -86 144 -86 200 0 22 -7 43 -16 51 -23 19 -32 48 -43 139
-13 98 -4 231 14 224 8 -4 14 -47 18 -137z m47 56 c0 -74 19 -223 31 -245 6
-12 6 -18 -1 -18 -5 0 -10 -7 -10 -15 0 -8 6 -15 13 -15 6 0 31 -42 55 -93 23
-50 63 -119 87 -152 49 -64 53 -75 30 -75 -36 0 -139 172 -184 305 -32 95 -59
291 -47 338 11 47 26 29 26 -30z m1851 -22 c6 -29 6 -47 -3 -60 -9 -15 -8 -24
6 -46 15 -23 17 -40 11 -111 l-7 -84 -59 -45 c-33 -25 -61 -45 -63 -45 -2 0 3
26 12 58 11 39 16 100 16 195 1 117 3 138 17 142 9 3 24 14 34 25 22 24 24 22
36 -29z m-104 -165 c-6 -104 -26 -228 -40 -242 -2 -3 -10 9 -17 25 -7 17 -18
35 -25 41 -9 8 -10 21 -4 48 12 55 15 151 6 205 -8 45 -7 47 16 47 14 0 30 7
38 16 24 29 32 -12 26 -140z m236 -9 c-5 -44 -11 -52 -52 -82 -25 -19 -47 -32
-49 -30 -2 2 0 40 4 84 5 65 10 81 23 81 9 0 27 17 41 38 l24 37 8 -40 c4 -22
4 -62 1 -88z m-343 10 c0 -8 -11 -24 -25 -37 l-25 -23 0 24 c0 27 17 49 37 49
7 0 13 -6 13 -13z m-1753 -5 c6 -4 15 -20 18 -35 10 -36 -21 -38 -35 -1 -16
42 -11 54 17 36z m263 -31 c0 -5 -7 -12 -16 -15 -22 -9 -24 -8 -24 9 0 8 9 15
20 15 11 0 20 -4 20 -9z m1495 -75 c-7 -44 -9 -46 -41 -46 -27 0 -37 -5 -46
-26 -10 -21 -8 -32 12 -68 l23 -43 -28 -51 c-15 -28 -41 -66 -57 -84 -25 -29
-29 -30 -25 -10 6 26 -17 31 -31 6 -6 -11 -16 -14 -31 -9 -21 6 -21 8 14 47
46 50 102 165 117 240 8 40 17 58 28 58 8 0 26 9 40 20 14 10 26 17 28 15 2
-2 0 -24 -3 -49z m-1739 7 c-3 -8 -6 -19 -6 -24 0 -5 -4 -9 -10 -9 -5 0 -10
13 -10 30 0 22 4 28 16 23 8 -3 13 -12 10 -20z m261 -127 c90 -139 239 -270
377 -331 51 -23 56 -27 46 -45 -6 -11 -14 -20 -17 -20 -4 0 -38 16 -77 35 -90
44 -183 117 -188 146 -3 20 -13 28 -58 49 -23 10 -86 97 -125 171 -40 76 -41
81 -20 73 9 -4 36 -38 62 -78z m1697 -21 c-25 -38 -27 -25 -7 44 l18 62 3 -40
c2 -25 -3 -50 -14 -66z m-30 23 c-9 -29 -23 -59 -32 -65 -8 -7 -13 -16 -9 -19
7 -7 -31 -86 -57 -119 -8 -11 -16 -14 -16 -7 0 27 -20 10 -20 -19 0 -52 -137
-183 -286 -272 -34 -20 -65 -37 -68 -37 -4 0 -6 12 -4 27 2 20 19 37 66 70 35
24 70 43 78 43 8 0 14 7 14 16 0 12 7 15 25 12 29 -6 45 10 24 23 -11 6 -8 14
13 36 37 39 99 139 127 203 13 30 27 62 31 70 7 14 108 88 122 89 4 1 0 -23
-8 -51z m-1891 25 c9 3 28 -22 55 -76 23 -45 60 -106 82 -134 43 -57 40 -63
-19 -34 -49 26 -95 94 -141 212 -16 41 -18 49 -6 40 9 -7 22 -11 29 -8z m1997
-66 c-57 -147 -147 -286 -192 -298 -27 -7 -28 -6 -28 30 0 28 14 61 50 121 28
46 50 88 50 95 0 6 18 19 40 29 22 9 50 30 62 45 27 33 35 23 18 -22z m-286
-95 c-66 -119 -113 -168 -99 -102 5 24 3 30 -10 30 -14 0 -14 3 3 28 11 15 29
46 41 70 18 35 26 42 51 42 16 0 32 5 36 12 6 9 9 9 12 0 2 -7 -13 -42 -34
-80z m-1706 -64 c26 -53 52 -121 48 -125 -7 -8 -45 17 -54 35 -14 26 -25 112
-14 112 5 0 14 -10 20 -22z m1473 -48 c6 0 9 -10 7 -22 -2 -19 -8 -22 -31 -20
-25 3 -28 1 -22 -17 4 -14 0 -23 -14 -30 -22 -12 -25 -9 -35 31 -5 23 -1 33
26 57 27 24 34 26 46 15 7 -8 18 -14 23 -14z m104 11 c-3 -6 -11 -11 -17 -11
-6 0 -6 6 2 15 14 17 26 13 15 -4z m-1412 -27 c29 -15 79 -52 112 -83 50 -47
61 -63 65 -98 5 -37 4 -40 -12 -32 -43 23 -245 239 -223 239 3 0 29 -12 58
-26z m245 -44 c30 -22 89 -57 132 -77 73 -35 93 -54 71 -67 -19 -12 -211 93
-211 116 0 4 -5 8 -12 8 -16 0 -48 31 -48 47 0 20 11 16 68 -27z m1135 34 c20
-7 9 -44 -14 -44 -24 0 -33 18 -19 35 14 17 13 17 33 9z m-273 -20 c0 -21 -91
-60 -191 -80 -137 -27 -359 -5 -359 36 0 16 4 16 58 3 126 -30 330 -12 452 41
19 8 36 15 38 16 1 0 2 -7 2 -16z m438 -156 c-36 -31 -45 -34 -58 -23 -8 7
-25 16 -37 19 -20 6 -15 14 55 81 l77 73 3 -56 c3 -56 2 -57 -40 -94z m-1367
121 c28 -20 39 -49 18 -49 -13 0 -79 52 -79 63 0 14 32 7 61 -14z m953 -31 c3
-17 4 -33 2 -35 -2 -2 -49 -15 -106 -29 -74 -19 -105 -23 -113 -15 -16 16 -53
13 -68 -5 -12 -14 -29 -16 -109 -11 -98 5 -190 23 -190 37 0 33 10 37 73 23
142 -29 351 -8 454 46 50 26 49 26 57 -11z m178 -3 c6 11 12 22 14 23 5 6 44
-9 44 -17 0 -7 -123 -101 -133 -101 -3 0 -4 19 -2 42 3 29 11 47 27 60 22 16
23 16 31 -5 8 -22 8 -22 19 -2z m-772 -14 c0 -20 -13 -41 -25 -41 -21 0 -28
19 -15 35 14 17 40 20 40 6z m-187 -66 c26 -15 47 -29 47 -31 0 -2 -8 -8 -19
-13 -26 -14 -141 59 -141 90 l0 21 33 -20 c17 -11 53 -32 80 -47z m1287 30
c-13 -14 -26 -23 -28 -20 -3 3 5 16 18 30 13 14 26 23 28 20 3 -3 -5 -16 -18
-30z m-1410 -36 c16 -28 12 -49 -9 -49 -21 0 -31 19 -31 56 0 27 24 24 40 -7z
m920 -9 c0 -33 -4 -40 -22 -44 -124 -26 -130 -27 -143 -10 -11 16 -13 16 -23
-2 -10 -17 -11 -15 -12 15 0 28 2 31 14 22 11 -9 16 -9 23 2 7 12 117 53 151
56 8 1 12 -13 12 -39z m-555 -5 c33 -8 99 -14 146 -15 68 0 88 -3 93 -15 7
-20 46 -20 46 0 0 8 9 15 20 15 21 0 27 -24 11 -49 -12 -19 -177 -9 -302 19
-105 23 -113 26 -96 45 15 18 10 18 82 0z m-261 -70 c-10 -34 -21 -38 -53 -19
-26 15 -31 24 -31 56 l0 38 45 -28 c36 -21 44 -31 39 -47z m1052 40 c-3 -9 3
-24 13 -34 17 -17 17 -19 -24 -41 -39 -21 -43 -22 -73 -6 -43 22 -49 20 -24
-7 l22 -23 -74 -31 -75 -31 35 48 c21 29 52 57 77 69 23 11 58 32 77 45 41 29
55 32 46 11z m83 1 c10 -12 9 -17 -6 -24 -15 -8 -18 -6 -19 14 -2 27 8 31 25
10z m-927 -26 c34 -11 73 -20 85 -20 12 0 25 -4 28 -10 3 -5 1 -10 -4 -10 -6
0 -20 -9 -31 -20 -20 -20 -20 -20 -87 6 -78 29 -86 35 -77 57 8 21 9 21 86 -3z
m-102 0 c0 -5 -7 -10 -16 -10 -8 0 -12 5 -9 10 3 6 10 10 16 10 5 0 9 -4 9
-10z m700 -24 c0 -48 -88 -82 -241 -93 l-86 -6 -21 42 -22 41 62 0 61 0 -24
-26 -24 -27 25 13 c14 7 32 18 40 25 8 7 56 20 105 28 119 19 125 19 125 3z
m344 -10 c-8 -21 -55 -46 -86 -46 -18 0 -11 8 32 35 30 18 56 32 58 31 1 -2 0
-11 -4 -20z m-1084 7 c-1 -5 -10 -19 -21 -32 -25 -31 -46 -16 -23 17 14 21 44
31 44 15z m20 -58 c0 -8 -7 -15 -15 -15 -16 0 -20 12 -8 23 11 12 23 8 23 -8z
m40 -16 c0 -20 -15 -26 -24 -10 -8 13 4 42 15 35 5 -3 9 -14 9 -25z m92 16
c41 -14 45 -19 46 -50 l1 -34 -47 14 c-26 8 -50 15 -54 15 -9 0 -6 70 3 70 3
0 26 -7 51 -15z m-182 -30 c7 -8 16 -13 20 -10 11 7 23 -12 15 -25 -8 -14 -41
5 -55 30 -12 23 2 27 20 5z m671 -27 c-50 -32 -155 -58 -207 -51 -45 6 -49 9
-38 37 5 13 22 16 83 17 42 0 94 4 116 8 73 15 83 13 46 -11z m-591 -2 c0 -2
-7 -6 -15 -10 -8 -3 -15 -1 -15 4 0 6 7 10 15 10 8 0 15 -2 15 -4z"/>
<path d="M1572 3045 c0 -16 2 -22 5 -12 2 9 2 23 0 30 -3 6 -5 -1 -5 -18z"/>
<path d="M1516 2845 c-9 -26 -7 -32 5 -12 6 10 9 21 6 23 -2 3 -7 -2 -11 -11z"/>
<path d="M1450 2820 c0 -5 5 -10 10 -10 6 0 10 5 10 10 0 6 -4 10 -10 10 -5 0
-10 -4 -10 -10z"/>
<path d="M1487 2804 c-9 -9 4 -35 14 -28 5 3 9 12 9 20 0 14 -12 19 -23 8z"/>
<path d="M1620 1675 c-11 -13 -11 -19 3 -33 20 -19 41 -5 35 24 -4 24 -22 28
-38 9z"/>
<path d="M1488 1503 c7 -3 16 -2 19 1 4 3 -2 6 -13 5 -11 0 -14 -3 -6 -6z"/>
<path d="M620 270 c0 -5 5 -10 10 -10 6 0 10 5 10 10 0 6 -4 10 -10 10 -5 0
-10 -4 -10 -10z"/>
<path d="M1960 160 c0 -15 5 -20 18 -18 9 2 17 10 17 18 0 8 -8 16 -17 18 -13
2 -18 -3 -18 -18z"/>
<path d="M1894 146 c-9 -24 12 -44 28 -28 10 9 8 16 -5 29 -15 15 -17 15 -23
-1z"/>
</g>
</svg>
